<?xml version="1.0" encoding="UTF-8"?>
<svg width="200px" height="60px" viewBox="0 0 200 60" version="1.1" xmlns="http://www.w3.org/2000/svg" xmlns:xlink="http://www.w3.org/1999/xlink">
    <!-- Generator: Sketch 52.6 (67491) - http://www.bohemiancoding.com/sketch -->
    <title>Logo</title>
    <desc>Created with Sketch.</desc>
    <defs>
        <polygon id="path-1" points="0.0461538462 0.386153846 200 0.386153846 200 59.9538462 0.0461538462 59.9538462"></polygon>
    </defs>
    <g id="Symbols" stroke="none" stroke-width="1" fill="none" fill-rule="evenodd">
        <g id="Wrapper/Header/Main" transform="translate(-70.000000, -40.000000)">
            <g id="Logo/white" transform="translate(70.000000, 40.000000)">
                <g id="Simmons-logo-blue">
                    <mask id="mask-2" fill="white">
                        <use xlink:href="#path-1"></use>
                    </mask>
                    <g id="Clip-2"></g>
                    <path d="M0.304615385,29.9730769 L3.25846154,29.9730769 L4.2,27.2753846 C7.36923077,29.6307692 10.4946154,30.8292308 13.7484615,30.8292308 C20.1707692,30.8292308 24.4961538,26.9753846 24.4961538,21.5815385 C24.4961538,17 21.4561538,14.0461538 15.3330769,12.6323077 L9.55230769,11.3046154 C6.68384615,10.6630769 5.31461538,9.59230769 5.31461538,7.58 C5.31461538,5.31076923 7.24,3.89846154 10.7523077,3.89846154 C15.4184615,3.89846154 18.7584615,6.80923077 19.7438462,12.1192308 L22.9976923,12.1192308 L22.9976923,1.24230769 L20.4292308,1.24230769 L18.9292308,3.34 C16.3607692,1.32769231 13.7061538,0.386153846 10.5807692,0.386153846 C4.24384615,0.386153846 0.219230769,3.98384615 0.219230769,9.33538462 C0.219230769,13.9592308 3.21692308,16.3569231 9.63769231,17.8561538 L14.3061538,18.9253846 C17.6453846,19.6961538 19.1869231,20.9815385 19.1869231,23.2084615 C19.1869231,25.6061538 17.1315385,26.9330769 13.2776923,26.9330769 C8.01076923,26.9330769 4.58538462,23.85 3.64384615,18.1130769 L0.304615385,18.1130769 L0.304615385,29.9730769 Z M31.8607692,4.06923077 C31.8607692,5.82384615 33.2307692,7.28 35.0292308,7.28 C36.8269231,7.28 38.2392308,5.86692308 38.2392308,4.06923077 C38.2392308,2.27076923 36.8269231,0.900769231 35.0292308,0.900769231 C33.2307692,0.900769231 31.8607692,2.31307692 31.8607692,4.06923077 Z M28.7769231,29.9730769 L41.7930769,29.9730769 L41.7930769,27.1046154 L40.51,27.1046154 C38.3246154,27.1046154 38.0269231,26.5046154 38.0269231,24.5353846 L38.0269231,9.76307692 L28.7769231,9.76307692 L28.7769231,12.6323077 L30.3623077,12.6323077 C32.5453846,12.6323077 32.8023077,13.2315385 32.8023077,15.2007692 L32.8023077,24.5353846 C32.8023077,26.5046154 32.5453846,27.1046154 30.3623077,27.1046154 L28.7769231,27.1046154 L28.7769231,29.9730769 Z M66.97,13.2315385 C66.0269231,10.4915385 64.1869231,9.12153846 61.4038462,9.12153846 C58.6623077,9.12153846 56.5646154,10.4061538 54.4246154,13.1884615 L54.4246154,9.76307692 L45.4753846,9.76307692 L45.4753846,12.6323077 L46.8892308,12.6323077 C49.0723077,12.6323077 49.3284615,13.2315385 49.3284615,15.2007692 L49.3284615,24.5353846 C49.3284615,26.5046154 49.0723077,27.1046154 46.8892308,27.1046154 L45.4753846,27.1046154 L45.4753846,29.9730769 L57.3784615,29.9730769 L57.3784615,27.1046154 L56.8646154,27.1046154 C54.6807692,27.1046154 54.4246154,26.5046154 54.4246154,24.5353846 L54.4246154,18.0269231 C54.4246154,14.6876923 56.6938462,12.4184615 59.1769231,12.4184615 C61.66,12.4184615 62.0884615,13.7461538 62.0884615,16.5715385 L62.0884615,24.5353846 C62.0884615,26.5046154 61.7892308,27.1046154 59.6053846,27.1046154 L59.1346154,27.1046154 L59.1346154,29.9730769 L70.1376923,29.9730769 L70.1376923,27.1046154 L69.6246154,27.1046154 C67.4407692,27.1046154 67.1830769,26.5046154 67.1830769,24.5353846 L67.1830769,18.0269231 C67.1830769,14.6876923 69.4538462,12.4184615 71.9369231,12.4184615 C74.42,12.4184615 74.8476923,13.7461538 74.8476923,16.5715385 L74.8476923,24.5353846 C74.8476923,26.5046154 74.5476923,27.1046154 72.3638462,27.1046154 L71.8930769,27.1046154 L71.8930769,29.9730769 L83.5823077,29.9730769 L83.5823077,27.1046154 L82.3830769,27.1046154 C80.1992308,27.1046154 79.9430769,26.5046154 79.9430769,24.5353846 L79.9430769,16.5715385 C79.9430769,14.0461538 79.9,12.2046154 78.53,10.7484615 C77.5884615,9.76307692 75.9615385,9.12153846 74.0769231,9.12153846 C71.4653846,9.12153846 69.3676923,10.4915385 66.97,13.2315385 Z M107.688462,13.2315385 C106.746923,10.4915385 104.905385,9.12153846 102.122308,9.12153846 C99.3823077,9.12153846 97.2838462,10.4061538 95.1430769,13.1884615 L95.1430769,9.76307692 L86.1946154,9.76307692 L86.1946154,12.6323077 L87.6076923,12.6323077 C89.7907692,12.6323077 90.0476923,13.2315385 90.0476923,15.2007692 L90.0476923,24.5353846 C90.0476923,26.5046154 89.7907692,27.1046154 87.6076923,27.1046154 L86.1946154,27.1046154 L86.1946154,29.9730769 L98.0969231,29.9730769 L98.0969231,27.1046154 L97.5838462,27.1046154 C95.3992308,27.1046154 95.1430769,26.5046154 95.1430769,24.5353846 L95.1430769,18.0269231 C95.1430769,14.6876923 97.4115385,12.4184615 99.8953846,12.4184615 C102.378462,12.4184615 102.806923,13.7461538 102.806923,16.5715385 L102.806923,24.5353846 C102.806923,26.5046154 102.507692,27.1046154 100.323846,27.1046154 L99.8530769,27.1046154 L99.8530769,29.9730769 L110.856923,29.9730769 L110.856923,27.1046154 L110.342308,27.1046154 C108.159231,27.1046154 107.902308,26.5046154 107.902308,24.5353846 L107.902308,18.0269231 C107.902308,14.6876923 110.172308,12.4184615 112.654615,12.4184615 C115.138462,12.4184615 115.566923,13.7461538 115.566923,16.5715385 L115.566923,24.5353846 C115.566923,26.5046154 115.267692,27.1046154 113.083846,27.1046154 L112.612308,27.1046154 L112.612308,29.9730769 L124.300769,29.9730769 L124.300769,27.1046154 L123.102308,27.1046154 C120.919231,27.1046154 120.660769,26.5046154 120.660769,24.5353846 L120.660769,16.5715385 C120.660769,14.0461538 120.619231,12.2046154 119.248462,10.7484615 C118.306923,9.76307692 116.68,9.12153846 114.796154,9.12153846 C112.183846,9.12153846 110.086154,10.4915385 107.688462,13.2315385 Z M126.270769,19.8684615 C126.270769,26.3769231 130.723077,30.7 137.660769,30.7 C144.596154,30.7 149.091538,26.3769231 149.091538,19.8684615 C149.091538,13.3607692 144.596154,8.99230769 137.660769,8.99230769 C130.723077,8.99230769 126.270769,13.3607692 126.270769,19.8684615 Z M132.094615,19.8684615 C132.094615,14.6446154 133.935385,12.0330769 137.660769,12.0330769 C141.385385,12.0330769 143.269231,14.6446154 143.269231,19.8684615 C143.269231,25.0915385 141.385385,27.6607692 137.660769,27.6607692 C133.935385,27.6607692 132.094615,25.0915385 132.094615,19.8684615 Z M151.275385,29.9730769 L163.606154,29.9730769 L163.606154,27.1046154 L162.75,27.1046154 C160.566154,27.1046154 160.308462,26.5046154 160.308462,24.5353846 L160.308462,19.3107692 C160.308462,14.7730769 162.493846,12.4184615 165.533077,12.4184615 C167.931538,12.4184615 168.702308,13.7876923 168.702308,16.5715385 L168.702308,24.5353846 C168.702308,26.5046154 168.444615,27.1046154 166.260769,27.1046154 L165.403846,27.1046154 L165.403846,29.9730769 L177.564615,29.9730769 L177.564615,27.1046154 L176.323077,27.1046154 C174.14,27.1046154 173.883077,26.5046154 173.883077,24.5353846 L173.883077,16.5715385 C173.883077,11.4338462 172.169231,9.12153846 167.331538,9.12153846 C164.891538,9.12153846 162.536154,10.5338462 160.308462,13.3169231 L160.308462,9.76307692 L151.275385,9.76307692 L151.275385,12.6323077 L152.687692,12.6323077 C154.871538,12.6323077 155.129231,13.2315385 155.129231,15.2007692 L155.129231,24.5353846 C155.129231,26.5046154 154.871538,27.1046154 152.687692,27.1046154 L151.275385,27.1046154 L151.275385,29.9730769 Z M181.375385,30.23 L184.201538,30.23 L184.972308,28.4315385 C187.241538,30.0161538 189.253846,30.7 191.822308,30.7 C197.003077,30.7 200,28.1315385 200,24.15 C200,20.6392308 197.689231,18.6692308 192.807692,17.5130769 L188.910769,16.6146154 C187.283846,16.2292308 186.513077,15.5438462 186.513077,14.43 C186.513077,12.9753846 187.712308,12.0330769 189.766923,12.0330769 C192.807692,12.0330769 195.162308,13.8315385 196.018462,16.9569231 L198.93,16.9569231 L198.93,9.46307692 L196.49,9.46307692 L195.547692,11.0484615 C193.664615,9.67769231 191.693846,8.99230769 189.424615,8.99230769 C184.672308,8.99230769 181.589231,11.6046154 181.589231,15.3292308 C181.589231,18.4984615 183.730769,20.5107692 188.14,21.5815385 L191.308462,22.3523077 C193.749231,22.9507692 194.906154,23.5938462 194.906154,25.0069231 C194.906154,26.5476923 193.578462,27.6607692 191.308462,27.6607692 C187.754615,27.6607692 185.314615,25.6484615 184.500769,21.9669231 L181.375385,21.9669231 L181.375385,30.23 Z" id="Fill-1" fill="#FFFFFF" mask="url(#mask-2)"></path>
                    <path d="M2.58846154,45.8015385 L2.58846154,54.2207692 C2.58846154,57.99 4.8,60 8.89692308,60 C13.1938462,60 15.3046154,57.8138462 15.3046154,53.3407692 L15.3046154,45.8015385 C15.3046154,44.3438462 15.4046154,43.9661538 17.09,43.9661538 L17.8438462,43.9661538 L17.8438462,42.6353846 L10.6053846,42.6353846 L10.6053846,43.9661538 L11.8369231,43.9661538 C13.52,43.9661538 13.6215385,44.3438462 13.6215385,45.8015385 L13.6215385,53.3407692 C13.6215385,56.7592308 12.44,58.3161538 9.24769231,58.3161538 C6.33307692,58.3161538 5.02615385,57.01 5.02615385,54.2207692 L5.02615385,45.8015385 C5.02615385,44.3438462 5.12692308,43.9661538 6.81076923,43.9661538 L8.06692308,43.9661538 L8.06692308,42.6353846 L0,42.6353846 L0,43.9661538 L0.803846154,43.9661538 C2.48846154,43.9661538 2.58846154,44.3438462 2.58846154,45.8015385 Z M39.4307692,59.5738462 L39.4307692,45.8261538 C39.4307692,44.3684615 39.5323077,43.9661538 41.2153846,43.9661538 L42.0453846,43.9661538 L42.0453846,42.6353846 L34.6307692,42.6353846 L34.6307692,43.9661538 L35.9630769,43.9661538 C37.6469231,43.9661538 37.7469231,44.3684615 37.7469231,45.8261538 L37.7469231,56.1807692 L28.1723077,42.6353846 L22.5184615,42.6353846 L22.5184615,43.9661538 L23.4976923,43.9661538 C25.1815385,43.9661538 25.2815385,44.3684615 25.2815385,45.8261538 L25.2815385,56.3069231 C25.2815385,57.7638462 25.1815385,58.1669231 23.4976923,58.1669231 L22.5184615,58.1669231 L22.5184615,59.4969231 L30.0061538,59.4969231 L30.0061538,58.1669231 L28.7507692,58.1669231 C27.0669231,58.1669231 26.9653846,57.7638462 26.9653846,56.3069231 L26.9653846,44.9207692 L37.2946154,59.5738462 L39.4307692,59.5738462 Z M46.7438462,59.4969231 L55.0630769,59.4969231 L55.0630769,58.1669231 L53.9323077,58.1669231 C52.2484615,58.1669231 52.1469231,57.7638462 52.1469231,56.3069231 L52.1469231,45.8015385 C52.1469231,44.3438462 52.2484615,43.9661538 53.9323077,43.9661538 L55.0630769,43.9661538 L55.0630769,42.6353846 L46.7438462,42.6353846 L46.7438462,43.9661538 L47.8746154,43.9661538 C49.5584615,43.9661538 49.66,44.3438462 49.66,45.8015385 L49.66,56.3069231 C49.66,57.7638462 49.5584615,58.1669231 47.8746154,58.1669231 L46.7438462,58.1669231 L46.7438462,59.4969231 Z M67.6784615,59.4969231 L69.6130769,59.4969231 L74.8153846,45.6753846 C75.3192308,44.3684615 75.6453846,43.9661538 77.0776923,43.9661538 L77.9330769,43.9661538 L77.9330769,42.6353846 L70.5430769,42.6353846 L70.5430769,43.9661538 L72.0007692,43.9661538 C73.0069231,43.9661538 73.3830769,44.1176923 73.3830769,44.7715385 C73.3830769,44.9461538 73.3076923,45.2738462 73.1315385,45.7015385 L69.0861538,56.5084615 L65.1146154,45.6753846 C64.99,45.3238462 64.9384615,44.9976923 64.9384615,44.72 C64.9384615,44.1423077 65.3161538,43.9661538 66.2207692,43.9661538 L67.78,43.9661538 L67.78,42.6353846 L59.6115385,42.6353846 L59.6115385,43.9661538 L60.39,43.9661538 C61.7223077,43.9661538 62.1238462,44.3438462 62.5761538,45.5492308 L67.6784615,59.4969231 Z M81.8269231,59.4969231 L97.8107692,59.4969231 L97.8107692,52.6369231 L96.5053846,52.6369231 C96.4538462,56.9853846 95.6253846,58.1669231 91.98,58.1669231 L87.0792308,58.1669231 L87.0792308,51.3046154 L88.7892308,51.3046154 C91.1261538,51.3046154 91.4776923,52.0592308 91.5276923,54.9992308 L92.81,54.9992308 L92.81,46.7315385 L91.5276923,46.7315385 C91.5276923,49.6207692 91.05,49.9738462 88.8138462,49.9738462 L87.0792308,49.9738462 L87.0792308,43.9661538 L91.6538462,43.9661538 C95.4238462,43.9661538 96.5053846,44.9461538 96.5053846,48.9669231 L97.8107692,48.9669231 L97.8107692,42.6353846 L81.8269231,42.6353846 L81.8269231,43.9661538 L82.8584615,43.9661538 C84.5423077,43.9661538 84.6423077,44.3438462 84.6423077,45.8015385 L84.6423077,56.3069231 C84.6423077,57.7638462 84.5423077,58.1669231 82.8584615,58.1669231 L81.8269231,58.1669231 L81.8269231,59.4969231 Z M109.07,56.3069231 L109.07,51.4061538 L112.312308,51.4061538 C114.976154,51.4061538 116.182308,52.5369231 116.283077,55.1007692 L116.383846,57.1853846 C116.458462,59.07 117.338462,60 119.046923,60 C121.057692,60 121.861538,58.6176923 121.861538,55.6523077 L121.861538,55.3769231 L120.656154,55.3769231 C120.580769,57.4369231 120.479231,58.3669231 119.726154,58.3669231 C118.619231,58.3669231 118.946923,57.1353846 118.796154,54.7484615 C118.645385,52.4607692 117.589231,51.3046154 115.353846,50.8515385 C118.368462,50.4761538 119.901538,49.0930769 119.901538,46.8307692 C119.901538,43.74 117.54,42.6353846 112.538462,42.6353846 L103.818462,42.6353846 L103.818462,43.9661538 L104.848462,43.9661538 C106.531538,43.9661538 106.633077,44.3438462 106.633077,45.8015385 L106.633077,56.3069231 C106.633077,57.7638462 106.531538,58.1669231 104.848462,58.1669231 L103.818462,58.1669231 L103.818462,59.4969231 L112.110769,59.4969231 L112.110769,58.1669231 L110.853077,58.1669231 C109.17,58.1669231 109.07,57.7638462 109.07,56.3069231 Z M109.07,50.0484615 L109.07,43.9661538 L112.538462,43.9661538 C115.754615,43.9661538 117.338462,44.7469231 117.338462,46.7807692 C117.338462,49.0684615 115.729231,50.0484615 112.312308,50.0484615 L109.07,50.0484615 Z M127.441538,59.4969231 L128.722308,59.4969231 L129.552308,57.6376923 C131.210769,59.2461538 132.994615,60 135.156923,60 C138.901538,60 141.413846,57.8138462 141.413846,54.7230769 C141.413846,51.7569231 139.553846,50.4761538 135.507692,49.6707692 L133.070769,49.1684615 C130.758462,48.7161538 129.652308,47.8876923 129.652308,46.4546154 C129.652308,44.67 131.084615,43.59 133.598462,43.59 C136.739231,43.59 138.725385,45.45 139.152308,48.8669231 L140.508462,48.8669231 L140.508462,42.4838462 L139.327692,42.4838462 L138.599231,44.0161538 C137.041538,42.7346154 135.433077,42.1315385 133.573846,42.1315385 C129.753846,42.1315385 127.490769,44.0430769 127.490769,46.8061538 C127.490769,49.9738462 129.326154,50.8776923 133.146154,51.7323077 L135.232308,52.1846154 C137.845385,52.7638462 139.127692,53.44 139.127692,55.2507692 C139.127692,57.1107692 137.569231,58.4176923 135.08,58.4176923 C131.763077,58.4176923 129.350769,56.23 128.823846,52.5115385 L127.441538,52.5115385 L127.441538,59.4969231 Z M146.716923,59.4969231 L155.035385,59.4969231 L155.035385,58.1669231 L153.903846,58.1669231 C152.220769,58.1669231 152.120769,57.7638462 152.120769,56.3069231 L152.120769,45.8015385 C152.120769,44.3438462 152.220769,43.9661538 153.903846,43.9661538 L155.035385,43.9661538 L155.035385,42.6353846 L146.716923,42.6353846 L146.716923,43.9661538 L147.846923,43.9661538 C149.532308,43.9661538 149.631538,44.3438462 149.631538,45.8015385 L149.631538,56.3069231 C149.631538,57.7638462 149.532308,58.1669231 147.846923,58.1669231 L146.716923,58.1669231 L146.716923,59.4969231 Z M160.764615,49.2446154 L162.046923,49.2446154 C162.122308,45.2738462 163.126923,43.9661538 166.493846,43.9661538 L167.274615,43.9661538 L167.274615,56.3069231 C167.274615,57.7638462 167.173077,58.1669231 165.49,58.1669231 L163.905385,58.1669231 L163.905385,59.4969231 L173.079231,59.4969231 L173.079231,58.1669231 L171.496154,58.1669231 C169.813077,58.1669231 169.711538,57.7638462 169.711538,56.3069231 L169.711538,43.9661538 L170.491538,43.9661538 C173.859231,43.9661538 174.863846,45.2738462 174.938462,49.2446154 L176.246154,49.2446154 L176.246154,42.6353846 L160.764615,42.6353846 L160.764615,49.2446154 Z M188.46,52.8376923 L188.46,56.3069231 C188.46,57.7638462 188.358462,58.1669231 186.675385,58.1669231 L185.091538,58.1669231 L185.091538,59.4969231 L194.264615,59.4969231 L194.264615,58.1669231 L192.682308,58.1669231 C190.997692,58.1669231 190.897692,57.7638462 190.897692,56.3069231 L190.897692,52.8376923 L195.094615,46.0523077 C195.974615,44.62 196.576923,43.9661538 197.733077,43.9661538 L198.336923,43.9661538 L198.336923,42.6353846 L191.474615,42.6353846 L191.474615,43.9661538 L193.185385,43.9661538 C193.736923,43.9661538 194.064615,44.1676923 194.064615,44.4192308 C194.064615,44.62 193.963077,44.8961538 193.762308,45.2238462 L190.093846,51.1292308 L186.675385,45.4753846 C186.424615,45.0723077 186.324615,44.72 186.324615,44.4684615 C186.324615,44.1423077 186.625385,43.9661538 187.202308,43.9661538 L188.836154,43.9661538 L188.836154,42.6353846 L181.096154,42.6353846 L181.096154,43.9661538 L181.824615,43.9661538 C182.653846,43.9661538 183.357692,44.52 184.011538,45.6 L188.46,52.8376923 Z" id="Fill-3" fill="#FFFFFF" mask="url(#mask-2)"></path>
                </g>
            </g>
        </g>
    </g>
</svg>